<svg width="28" height="30" viewBox="0 0 28 30" fill="none" xmlns="http://www.w3.org/2000/svg">
<path d="M0.761719 22.5254C0.761719 23.6738 1.63672 24.4531 3.04492 24.4531H8.66406C8.78711 27.0645 10.9199 29.457 14.0234 29.457C17.127 29.457 19.2598 27.0781 19.3828 24.4531H25.002C26.4238 24.4531 27.2852 23.6738 27.2852 22.5254C27.2852 21.0762 25.959 19.832 24.7148 18.6289C23.7578 17.6855 23.5254 15.7988 23.3477 13.9258C23.1699 8.74414 21.666 5.28516 18.0977 3.98633C17.5781 2.18164 16.0605 0.800781 14.0234 0.800781C11.9863 0.800781 10.4688 2.18164 9.94922 3.98633C6.38086 5.28516 4.87695 8.74414 4.69922 13.9258C4.52148 15.7988 4.30273 17.6855 3.33203 18.6289C2.10156 19.832 0.761719 21.0762 0.761719 22.5254ZM4.0293 21.9512V21.7871C4.38477 21.3906 5.17773 20.666 5.84766 19.8867C6.79102 18.8066 7.22852 16.8516 7.36523 14.2539C7.5293 8.70312 9.22461 6.85742 11.4395 6.25586C11.7676 6.17383 11.959 6.00977 11.9863 5.64062C12.0547 4.24609 12.8203 3.31641 14.0234 3.31641C15.2266 3.31641 16.0059 4.24609 16.0605 5.64062C16.0879 6.00977 16.2793 6.17383 16.6211 6.25586C18.8223 6.85742 20.5312 8.70312 20.6816 14.2539C20.8184 16.8516 21.2695 18.8066 22.1992 19.8867C22.8828 20.666 23.6484 21.3906 23.9902 21.7871V21.9512H4.0293ZM11.248 24.4531H16.7988C16.7031 26.1621 15.582 27.2695 14.0234 27.2695C12.4785 27.2695 11.3574 26.1621 11.248 24.4531Z" fill="#2543AD"/>
</svg>
