<svg width="17" height="16" viewBox="0 0 17 16" fill="none" xmlns="http://www.w3.org/2000/svg">
<path d="M0.675812 10.2893C0.675812 11.1878 1.20706 11.969 1.9805 12.3284V14.4846C1.9805 14.9846 2.41019 15.3831 2.918 15.3831C3.43362 15.3831 3.8555 14.9846 3.8555 14.4846V12.3284C4.62112 11.969 5.16019 11.1956 5.16019 10.2893C5.16019 9.39089 4.62112 8.61745 3.8555 8.25807V1.35182C3.8555 0.844012 3.42581 0.437762 2.918 0.437762C2.42581 0.437762 1.9805 0.844012 1.9805 1.35182V8.25807C1.20706 8.61745 0.675812 9.39089 0.675812 10.2893ZM8.51175 15.3831C9.02737 15.3831 9.44925 14.9846 9.44925 14.469V7.54714C10.2149 7.19557 10.7461 6.41432 10.7461 5.51589C10.7461 4.61745 10.2149 3.84401 9.44925 3.48464V1.3362C9.44925 0.844012 9.01956 0.437762 8.51175 0.437762C8.01175 0.437762 7.56644 0.844012 7.56644 1.3362V3.48464C6.80081 3.8362 6.26956 4.61745 6.26956 5.51589C6.26956 6.40651 6.80081 7.18776 7.56644 7.54714V14.469C7.56644 14.9846 8.00394 15.3831 8.51175 15.3831ZM11.8633 10.2893C11.8633 11.1878 12.3946 11.969 13.1602 12.3284V14.4846C13.1602 14.9846 13.5977 15.3831 14.0977 15.3831C14.6211 15.3831 15.043 14.9846 15.043 14.4846V12.3284C15.8086 11.969 16.3399 11.1878 16.3399 10.2893C16.3399 9.39089 15.8086 8.61745 15.043 8.25807V1.35182C15.043 0.844012 14.6055 0.437762 14.0977 0.437762C13.6055 0.437762 13.1602 0.844012 13.1602 1.35182V8.25807C12.3946 8.61745 11.8633 9.39089 11.8633 10.2893ZM7.47269 5.51589C7.47269 4.94557 7.93362 4.48464 8.51175 4.48464C9.09769 4.48464 9.543 4.94557 9.543 5.51589C9.543 6.10182 9.09769 6.54714 8.51175 6.54714C7.93362 6.54714 7.47269 6.10182 7.47269 5.51589ZM1.88675 10.2893C1.88675 9.71901 2.34769 9.25807 2.918 9.25807C3.50394 9.25807 3.94925 9.71901 3.94925 10.2893C3.94925 10.8753 3.50394 11.3284 2.918 11.3284C2.34769 11.3284 1.88675 10.8753 1.88675 10.2893ZM13.0664 10.2893C13.0664 9.71901 13.5352 9.25807 14.1055 9.25807C14.6914 9.25807 15.1367 9.71901 15.1367 10.2893C15.1367 10.8753 14.6914 11.3284 14.1055 11.3284C13.5352 11.3284 13.0664 10.8753 13.0664 10.2893Z" fill="#2B3442"/>
</svg>
