<svg width="14" height="11" viewBox="0 0 14 11" fill="none" xmlns="http://www.w3.org/2000/svg">
<path d="M7.12831 6.0327C7.38613 6.0327 7.61464 5.91551 7.88417 5.64598L12.9994 0.554184C12.765 0.354965 12.3607 0.255356 11.7924 0.255356H2.32948C1.82558 0.255356 1.45644 0.349106 1.2455 0.536606L6.37831 5.64598C6.64784 5.91551 6.87636 6.0327 7.12831 6.0327ZM0.636126 9.64793L4.89003 5.42332L0.653704 1.24559C0.536516 1.44481 0.472063 1.76707 0.472063 2.22411V8.70457C0.472063 9.14403 0.530657 9.46043 0.636126 9.64793ZM13.6146 9.64207C13.7201 9.44872 13.7787 9.13817 13.7787 8.70457V2.22411C13.7787 1.77879 13.7143 1.45067 13.5971 1.25731L9.37245 5.42332L13.6146 9.64207ZM2.45839 10.6733H11.9154C12.4486 10.6733 12.8236 10.5679 13.0463 10.3686L8.7162 6.06786L8.3705 6.4077C7.96034 6.80614 7.56777 6.99364 7.12831 6.99364C6.68886 6.99364 6.29628 6.80614 5.88613 6.4077L5.54042 6.06786L1.2162 10.3628C1.4623 10.5679 1.87831 10.6733 2.45839 10.6733Z" fill="#ADADAD"/>
</svg>
