<svg width="13" height="13" viewBox="0 0 13 13" fill="none" xmlns="http://www.w3.org/2000/svg">
<path d="M6.13808 12.5069C9.48964 12.5069 12.2494 9.7413 12.2494 6.39559C12.2494 3.04403 9.48378 0.278406 6.13222 0.278406C2.78652 0.278406 0.0267506 3.04403 0.0267506 6.39559C0.0267506 9.7413 2.78652 12.5069 6.13808 12.5069ZM4.68495 7.8077C3.26698 6.39559 2.37636 4.60848 3.43105 3.54794C3.46034 3.5245 3.48378 3.50106 3.51894 3.47762C3.93495 3.16708 4.29823 3.1202 4.55019 3.47177L5.28847 4.51473C5.54628 4.88387 5.48183 5.08895 5.20644 5.37606L4.97792 5.62802C4.89589 5.71005 4.92519 5.82137 4.9662 5.87997C5.08339 6.08505 5.38222 6.45419 5.71034 6.78231C6.04433 7.1163 6.39589 7.39755 6.60683 7.52645C6.68886 7.57919 6.81191 7.58505 6.88222 7.52059L7.11659 7.28622C7.38613 7.02255 7.61464 6.95223 7.97792 7.20419C8.42323 7.52059 8.73378 7.73739 9.03847 7.95419C9.40175 8.21786 9.308 8.62802 9.05605 8.93856C9.02089 8.97958 8.99159 9.02059 8.95058 9.06747C7.89003 10.1222 6.10292 9.23153 4.68495 7.8077Z" fill="#ADADAD"/>
</svg>
