<svg width="21" height="19" viewBox="0 0 21 19" fill="none" xmlns="http://www.w3.org/2000/svg">
<path d="M3.82976 18.6944H17.2673C19.3766 18.6944 20.4704 17.6007 20.4704 15.5206V3.63583C20.4704 1.54598 19.3766 0.461998 17.2673 0.461998H3.82976C1.72038 0.461998 0.626633 1.54598 0.626633 3.63583V15.5206C0.626633 17.6104 1.72038 18.6944 3.82976 18.6944ZM3.80046 16.7804C2.98991 16.7804 2.5407 16.3507 2.5407 15.5011V6.47762C2.5407 5.61825 2.98991 5.19833 3.80046 5.19833H17.277C18.0973 5.19833 18.5563 5.61825 18.5563 6.47762V15.5011C18.5563 16.3507 18.0973 16.7804 17.277 16.7804H3.80046ZM8.66374 8.587H9.23991C9.59148 8.587 9.70866 8.47958 9.70866 8.12801V7.56161C9.70866 7.21004 9.59148 7.10262 9.23991 7.10262H8.66374C8.32195 7.10262 8.20476 7.21004 8.20476 7.56161V8.12801C8.20476 8.47958 8.32195 8.587 8.66374 8.587ZM11.8669 8.587H12.4333C12.7848 8.587 12.902 8.47958 12.902 8.12801V7.56161C12.902 7.21004 12.7848 7.10262 12.4333 7.10262H11.8669C11.5153 7.10262 11.3981 7.21004 11.3981 7.56161V8.12801C11.3981 8.47958 11.5153 8.587 11.8669 8.587ZM15.0602 8.587H15.6266C15.9782 8.587 16.0954 8.47958 16.0954 8.12801V7.56161C16.0954 7.21004 15.9782 7.10262 15.6266 7.10262H15.0602C14.7087 7.10262 14.5915 7.21004 14.5915 7.56161V8.12801C14.5915 8.47958 14.7087 8.587 15.0602 8.587ZM5.47038 11.7315H6.04655C6.39812 11.7315 6.5153 11.6241 6.5153 11.2725V10.7061C6.5153 10.3546 6.39812 10.2472 6.04655 10.2472H5.47038C5.12859 10.2472 5.0114 10.3546 5.0114 10.7061V11.2725C5.0114 11.6241 5.12859 11.7315 5.47038 11.7315ZM8.66374 11.7315H9.23991C9.59148 11.7315 9.70866 11.6241 9.70866 11.2725V10.7061C9.70866 10.3546 9.59148 10.2472 9.23991 10.2472H8.66374C8.32195 10.2472 8.20476 10.3546 8.20476 10.7061V11.2725C8.20476 11.6241 8.32195 11.7315 8.66374 11.7315ZM11.8669 11.7315H12.4333C12.7848 11.7315 12.902 11.6241 12.902 11.2725V10.7061C12.902 10.3546 12.7848 10.2472 12.4333 10.2472H11.8669C11.5153 10.2472 11.3981 10.3546 11.3981 10.7061V11.2725C11.3981 11.6241 11.5153 11.7315 11.8669 11.7315ZM15.0602 11.7315H15.6266C15.9782 11.7315 16.0954 11.6241 16.0954 11.2725V10.7061C16.0954 10.3546 15.9782 10.2472 15.6266 10.2472H15.0602C14.7087 10.2472 14.5915 10.3546 14.5915 10.7061V11.2725C14.5915 11.6241 14.7087 11.7315 15.0602 11.7315ZM5.47038 14.8761H6.04655C6.39812 14.8761 6.5153 14.7686 6.5153 14.4171V13.8507C6.5153 13.4991 6.39812 13.3917 6.04655 13.3917H5.47038C5.12859 13.3917 5.0114 13.4991 5.0114 13.8507V14.4171C5.0114 14.7686 5.12859 14.8761 5.47038 14.8761ZM8.66374 14.8761H9.23991C9.59148 14.8761 9.70866 14.7686 9.70866 14.4171V13.8507C9.70866 13.4991 9.59148 13.3917 9.23991 13.3917H8.66374C8.32195 13.3917 8.20476 13.4991 8.20476 13.8507V14.4171C8.20476 14.7686 8.32195 14.8761 8.66374 14.8761ZM11.8669 14.8761H12.4333C12.7848 14.8761 12.902 14.7686 12.902 14.4171V13.8507C12.902 13.4991 12.7848 13.3917 12.4333 13.3917H11.8669C11.5153 13.3917 11.3981 13.4991 11.3981 13.8507V14.4171C11.3981 14.7686 11.5153 14.8761 11.8669 14.8761Z" fill="#2B3442"/>
</svg>
