<svg width="26" height="23" viewBox="0 0 26 23" fill="none" xmlns="http://www.w3.org/2000/svg">
<path d="M17.7344 7.22656C19.0352 7.22656 20.1602 6.44141 20.6406 5.31641H24.3906C25.0352 5.31641 25.5742 4.74219 25.5742 4.07422C25.5742 3.38281 25.0352 2.83203 24.3906 2.83203H20.6523C20.1602 1.70703 19.0352 0.910156 17.7344 0.910156C16.4336 0.910156 15.3086 1.70703 14.8281 2.83203H2.20703C1.52734 2.83203 0.988281 3.39453 0.988281 4.07422C0.988281 4.74219 1.52734 5.31641 2.20703 5.31641H14.8281C15.3203 6.44141 16.4336 7.22656 17.7344 7.22656ZM17.7344 5.55078C16.9141 5.55078 16.2578 4.89453 16.2578 4.0625C16.2578 3.23047 16.9141 2.58594 17.7344 2.58594C18.5781 2.58594 19.2227 3.23047 19.2227 4.0625C19.2227 4.89453 18.5781 5.55078 17.7344 5.55078ZM2.17188 10.2266C1.52734 10.2266 0.988281 10.7891 0.988281 11.4688C0.988281 12.1367 1.52734 12.7109 2.17188 12.7109H6.05078C6.53125 13.8359 7.65625 14.6328 8.95703 14.6328C10.2578 14.6328 11.3828 13.8359 11.8633 12.7109H24.3555C25.0352 12.7109 25.5742 12.1484 25.5742 11.4688C25.5742 10.7891 25.0352 10.2266 24.3555 10.2266H11.8633C11.3828 9.10156 10.2578 8.31641 8.95703 8.31641C7.65625 8.31641 6.53125 9.10156 6.05078 10.2266H2.17188ZM8.95703 12.957C8.13672 12.957 7.48047 12.3008 7.48047 11.4688C7.48047 10.625 8.13672 9.99219 8.95703 9.99219C9.80078 9.99219 10.4453 10.625 10.4453 11.4688C10.4453 12.3008 9.80078 12.957 8.95703 12.957ZM17.7344 22.0391C19.0352 22.0391 20.1602 21.2422 20.6523 20.1055H24.3906C25.0352 20.1055 25.5742 19.543 25.5742 18.875C25.5742 18.1836 25.0352 17.6328 24.3906 17.6328H20.6406C20.1602 16.5078 19.0469 15.7109 17.7344 15.7109C16.4336 15.7109 15.3203 16.5078 14.8281 17.6328H2.20703C1.52734 17.6328 0.988281 18.1953 0.988281 18.875C0.988281 19.5312 1.52734 20.1055 2.20703 20.1055H14.8281C15.3086 21.2422 16.4336 22.0391 17.7344 22.0391ZM17.7344 20.3516C16.9141 20.3516 16.2578 19.6953 16.2578 18.875C16.2578 18.0312 16.9141 17.3867 17.7344 17.3867C18.5781 17.3867 19.2227 18.0312 19.2227 18.875C19.2227 19.6953 18.5781 20.3516 17.7344 20.3516Z" fill="#2543AD"/>
</svg>
