<svg width="25" height="21" viewBox="0 0 25 21" fill="none" xmlns="http://www.w3.org/2000/svg">
<path d="M4.03788 18.506H14.2137C13.8621 17.9201 13.6082 17.2756 13.491 16.592H4.00858C3.19804 16.592 2.74882 16.1623 2.74882 15.3127V6.28923C2.74882 5.42986 3.19804 5.00993 4.00858 5.00993H17.4851C18.3055 5.00993 18.7644 5.42986 18.7644 6.28923V8.92595C19.0867 8.87712 19.409 8.84782 19.7312 8.84782C20.0437 8.84782 20.366 8.87712 20.6785 8.92595V3.44743C20.6785 1.35759 19.5848 0.273605 17.4754 0.273605H4.03788C1.9285 0.273605 0.834755 1.35759 0.834755 3.44743V15.3322C0.834755 17.422 1.9285 18.506 4.03788 18.506ZM8.87186 8.39861H9.44804C9.78983 8.39861 9.90702 8.29118 9.90702 7.93962V7.37321C9.90702 7.02165 9.78983 6.91423 9.44804 6.91423H8.87186C8.5203 6.91423 8.40311 7.02165 8.40311 7.37321V7.93962C8.40311 8.29118 8.5203 8.39861 8.87186 8.39861ZM12.0652 8.39861H12.6414C12.9832 8.39861 13.1004 8.29118 13.1004 7.93962V7.37321C13.1004 7.02165 12.9832 6.91423 12.6414 6.91423H12.0652C11.7137 6.91423 11.5965 7.02165 11.5965 7.37321V7.93962C11.5965 8.29118 11.7137 8.39861 12.0652 8.39861ZM15.2586 8.39861H15.8348C16.1863 8.39861 16.3035 8.29118 16.3035 7.93962V7.37321C16.3035 7.02165 16.1863 6.91423 15.8348 6.91423H15.2586C14.907 6.91423 14.7898 7.02165 14.7898 7.37321V7.93962C14.7898 8.29118 14.907 8.39861 15.2586 8.39861ZM5.6785 11.5431H6.24491C6.59647 11.5431 6.71366 11.4357 6.71366 11.0842V10.5177C6.71366 10.1662 6.59647 10.0588 6.24491 10.0588H5.6785C5.32694 10.0588 5.20975 10.1662 5.20975 10.5177V11.0842C5.20975 11.4357 5.32694 11.5431 5.6785 11.5431ZM8.87186 11.5431H9.44804C9.78983 11.5431 9.90702 11.4357 9.90702 11.0842V10.5177C9.90702 10.1662 9.78983 10.0588 9.44804 10.0588H8.87186C8.5203 10.0588 8.40311 10.1662 8.40311 10.5177V11.0842C8.40311 11.4357 8.5203 11.5431 8.87186 11.5431ZM12.0652 11.5431H12.6414C12.9832 11.5431 13.1004 11.4357 13.1004 11.0842V10.5177C13.1004 10.1662 12.9832 10.0588 12.6414 10.0588H12.0652C11.7137 10.0588 11.5965 10.1662 11.5965 10.5177V11.0842C11.5965 11.4357 11.7137 11.5431 12.0652 11.5431ZM19.7312 20.2834C22.4558 20.2834 24.7508 17.9982 24.7508 15.2541C24.7508 12.5002 22.4851 10.2345 19.7312 10.2345C16.9773 10.2345 14.7019 12.5002 14.7019 15.2541C14.7019 18.0177 16.9773 20.2834 19.7312 20.2834ZM19.7312 18.4377C19.3211 18.4377 19.0672 18.174 19.0672 17.7834V15.9181H17.2117C16.8113 15.9181 16.5476 15.6642 16.5476 15.2541C16.5379 14.8537 16.8113 14.59 17.2117 14.59H19.0672V12.7443C19.0672 12.3537 19.3211 12.0802 19.7312 12.0802C20.1316 12.0802 20.3953 12.3439 20.3953 12.7443V14.59H22.241C22.6414 14.59 22.9051 14.8537 22.9051 15.2541C22.9051 15.6642 22.6414 15.9181 22.241 15.9181H20.3953V17.7834C20.3953 18.174 20.1316 18.4377 19.7312 18.4377ZM5.6785 14.6877H6.24491C6.59647 14.6877 6.71366 14.5802 6.71366 14.2287V13.6623C6.71366 13.3107 6.59647 13.2033 6.24491 13.2033H5.6785C5.32694 13.2033 5.20975 13.3107 5.20975 13.6623V14.2287C5.20975 14.5802 5.32694 14.6877 5.6785 14.6877ZM8.87186 14.6877H9.44804C9.78983 14.6877 9.90702 14.5802 9.90702 14.2287V13.6623C9.90702 13.3107 9.78983 13.2033 9.44804 13.2033H8.87186C8.5203 13.2033 8.40311 13.3107 8.40311 13.6623V14.2287C8.40311 14.5802 8.5203 14.6877 8.87186 14.6877ZM12.0652 14.6877H12.6414C12.9832 14.6877 13.1004 14.5802 13.1004 14.2287V13.6623C13.1004 13.3107 12.9832 13.2033 12.6414 13.2033H12.0652C11.7137 13.2033 11.5965 13.3107 11.5965 13.6623V14.2287C11.5965 14.5802 11.7137 14.6877 12.0652 14.6877Z" fill="#2B3442"/>
</svg>
