<svg width="26" height="19" viewBox="0 0 26 19" fill="none" xmlns="http://www.w3.org/2000/svg">
<path d="M2.05319 2.58229C2.75632 2.58229 3.33249 2.01589 3.33249 1.31276C3.33249 0.609637 2.75632 0.0334654 2.05319 0.0334654C1.35007 0.0334654 0.773895 0.609637 0.773895 1.31276C0.773895 2.01589 1.35007 2.58229 2.05319 2.58229ZM4.93405 7.06472H7.10202V3.4905C7.10202 2.67018 7.53171 2.27956 8.31296 2.27956H21.6821C22.4536 2.27956 22.8833 2.67018 22.8833 3.4905V7.06472H25.0512V3.38307C25.0512 1.2444 23.8989 0.101825 21.7407 0.101825H8.23483C6.07663 0.101825 4.93405 1.2444 4.93405 3.38307V7.06472ZM2.05319 6.57643C2.75632 6.57643 3.33249 6.00026 3.33249 5.29714C3.33249 4.59401 2.75632 4.01784 2.05319 4.01784C1.35007 4.01784 0.773895 4.59401 0.773895 5.29714C0.773895 6.00026 1.35007 6.57643 2.05319 6.57643ZM2.05319 10.7073C2.54147 10.7073 2.98093 10.4436 3.23483 10.053H25.0512C25.4809 10.053 25.8032 9.73073 25.8032 9.31081C25.8032 8.88112 25.4809 8.55886 25.0512 8.55886H3.2446C2.99069 8.16823 2.55124 7.89479 2.05319 7.89479C1.28171 7.89479 0.646942 8.52956 0.646942 9.30104C0.646942 10.0628 1.28171 10.7073 2.05319 10.7073ZM7.10202 11.5471H4.93405V15.2483C4.93405 17.387 6.07663 18.5198 8.23483 18.5198H21.7407C23.8989 18.5198 25.0512 17.387 25.0512 15.2483V11.5471H22.8833V15.1311C22.8833 15.9612 22.4536 16.3518 21.6821 16.3518H8.31296C7.53171 16.3518 7.10202 15.9612 7.10202 15.1311V11.5471ZM2.05319 14.5647C2.75632 14.5647 3.33249 13.9983 3.33249 13.2854C3.33249 12.5823 2.75632 12.0061 2.05319 12.0061C1.35007 12.0061 0.773895 12.5823 0.773895 13.2854C0.773895 13.9983 1.35007 14.5647 2.05319 14.5647ZM2.05319 18.5686C2.75632 18.5686 3.33249 17.9924 3.33249 17.2893C3.33249 16.5862 2.75632 16.01 2.05319 16.01C1.35007 16.01 0.773895 16.5862 0.773895 17.2893C0.773895 17.9924 1.35007 18.5686 2.05319 18.5686Z" fill="#2B3442"/>
</svg>
