<svg width="41" height="20" viewBox="0 0 41 20" fill="none" xmlns="http://www.w3.org/2000/svg">
<path d="M9.40985 10.3075C11.8317 10.3075 13.7751 8.1981 13.7751 5.58092C13.7751 3.02232 11.822 0.952011 9.40985 0.952011C7.00751 0.952011 5.03485 3.04185 5.04462 5.59068C5.04462 8.1981 6.98798 10.3075 9.40985 10.3075ZM20.6696 10.3075C23.1013 10.3075 25.0446 8.1981 25.0446 5.58092C25.0446 3.02232 23.0915 0.952011 20.6696 0.952011C18.2673 0.952011 16.2946 3.04185 16.3044 5.59068C16.3141 8.1981 18.2477 10.3075 20.6696 10.3075ZM31.9391 10.3075C34.3708 10.3075 36.3141 8.1981 36.3141 5.58092C36.3141 3.02232 34.361 0.952011 31.9391 0.952011C29.5368 0.952011 27.5641 3.04185 27.5739 5.59068C27.5837 8.1981 29.5173 10.3075 31.9391 10.3075ZM9.41962 8.23717C8.19891 8.23717 7.16376 7.09459 7.16376 5.58092C7.15399 4.14537 8.19891 3.01256 9.41962 3.01256C10.6403 3.01256 11.6657 4.1356 11.6657 5.58092C11.6657 7.07506 10.6501 8.23717 9.41962 8.23717ZM20.6696 8.23717C19.4489 8.23717 18.4235 7.09459 18.4235 5.58092C18.4138 4.14537 19.4587 3.01256 20.6696 3.01256C21.9001 3.01256 22.9255 4.1356 22.9255 5.58092C22.9255 7.07506 21.9001 8.23717 20.6696 8.23717ZM31.9489 8.23717C30.7282 8.23717 29.6931 7.09459 29.6931 5.58092C29.6931 4.14537 30.738 3.01256 31.9489 3.01256C33.1696 3.01256 34.195 4.1356 34.195 5.58092C34.195 7.07506 33.1794 8.23717 31.9489 8.23717ZM3.40399 19.536H15.4157C17.2028 19.536 18.0915 18.9305 18.0915 17.661C18.0915 14.7899 14.5466 11.4012 9.40985 11.4012C4.26337 11.4012 0.72821 14.7899 0.72821 17.661C0.72821 18.9305 1.61688 19.536 3.40399 19.536ZM20.6696 11.4012C19.1462 11.4012 17.7595 11.704 16.5681 12.202C17.1931 12.6903 17.7497 13.2372 18.1696 13.8426C18.902 13.6083 19.7419 13.4618 20.6696 13.4618C24.6931 13.4618 27.0075 15.9422 27.0075 17.2508C27.0075 17.3973 26.9391 17.4754 26.7536 17.4754H19.5954C19.6247 18.2079 19.5173 18.911 19.0974 19.536H26.6755C28.4626 19.536 29.3513 18.9305 29.3513 17.661C29.3513 14.7899 25.8161 11.4012 20.6696 11.4012ZM31.9391 11.4012C30.4059 11.4012 29.029 11.704 27.8278 12.2118C28.4626 12.6903 29.0095 13.2469 29.4391 13.8524C30.1618 13.6083 31.0114 13.4618 31.9391 13.4618C35.9626 13.4618 38.277 15.9422 38.277 17.2508C38.277 17.3973 38.2087 17.4754 38.0231 17.4754H30.8649C30.8845 18.2079 30.777 18.911 30.3571 19.536H37.9548C39.7419 19.536 40.6208 18.9305 40.6208 17.661C40.6208 14.7899 37.0856 11.4012 31.9391 11.4012ZM3.32587 17.4754C3.14032 17.4754 3.08173 17.3973 3.08173 17.2508C3.08173 15.9422 5.38641 13.4618 9.40985 13.4618C13.4333 13.4618 15.738 15.9422 15.738 17.2508C15.738 17.3973 15.6794 17.4754 15.4841 17.4754H3.32587Z" fill="#2B3442"/>
</svg>
