<svg width="28" height="25" viewBox="0 0 28 25" fill="none" xmlns="http://www.w3.org/2000/svg">
<path d="M3.91231 14.6797C3.91231 16.1934 4.84004 17.5508 6.46114 18.5567V19.5332C5.93379 19.709 5.61153 20.1778 5.61153 20.8125V23.4395C5.61153 24.2598 6.14864 24.7969 6.97871 24.7969H7.36934C8.19942 24.7969 8.73653 24.2598 8.73653 23.4395V20.8125C8.73653 20.1778 8.41426 19.7188 7.89668 19.5332V19.2696C9.43965 19.8848 11.3635 20.2559 13.5607 20.2559C19.3029 20.2559 23.2092 17.7754 23.2092 14.6797V10.2754L25.9826 9.00589C26.676 8.69339 27.0471 8.07816 27.0471 7.42386C27.0471 6.77933 26.676 6.15433 25.9826 5.84183L16.3342 1.43753C15.2697 0.949249 14.4104 0.734406 13.5607 0.744171C12.7111 0.734406 11.8518 0.949249 10.7873 1.43753L1.1291 5.84183C0.445511 6.15433 0.0744171 6.77933 0.0744171 7.42386C0.0744171 8.07816 0.445511 8.69339 1.1291 9.00589L3.91231 10.2754V14.6797ZM13.5607 12.2285C12.9357 12.2285 12.3303 12.0625 11.5197 11.6914L8.91231 10.5L12.6623 8.53714C12.9553 8.61526 13.2678 8.65433 13.59 8.65433C14.7033 8.65433 15.7678 8.14651 15.7678 7.42386C15.7678 6.72073 14.7033 6.21292 13.59 6.21292C12.4768 6.21292 11.4025 6.72073 11.4025 7.42386C11.4025 7.52151 11.4221 7.60941 11.4514 7.6973L7.36934 9.80667L2.78926 7.72659C2.63301 7.64847 2.55489 7.55081 2.55489 7.42386C2.55489 7.30667 2.63301 7.19925 2.78926 7.13089L11.5197 3.16605C12.3303 2.78519 12.9357 2.62894 13.5607 2.62894C14.1857 2.62894 14.7912 2.78519 15.6018 3.16605L24.3322 7.13089C24.4885 7.19925 24.5666 7.30667 24.5666 7.42386C24.5666 7.55081 24.4885 7.64847 24.3322 7.72659L15.6018 11.6914C14.7912 12.0625 14.1857 12.2285 13.5607 12.2285ZM5.76778 14.6797V11.125L6.46114 11.4473V16.2813C6.01192 15.7832 5.76778 15.2364 5.76778 14.6797ZM13.5607 14.1133C14.4104 14.1231 15.2697 13.8985 16.3342 13.42L21.3537 11.125V14.6797C21.3537 16.6719 18.258 18.4981 13.5607 18.4981C11.2072 18.4981 9.2541 18.0391 7.89668 17.336V12.1016L10.7873 13.42C11.8518 13.8985 12.7111 14.1231 13.5607 14.1133Z" fill="#2B3442"/>
</svg>
