<svg width="23" height="22" viewBox="0 0 23 22" fill="none" xmlns="http://www.w3.org/2000/svg">
<path d="M12.4567 1.13977C12.4567 0.602661 12.0075 0.153442 11.4704 0.153442C10.943 0.153442 10.4938 0.602661 10.4938 1.13977V4.13782C10.4938 4.66516 10.943 5.11438 11.4704 5.11438C12.0075 5.11438 12.4567 4.66516 12.4567 4.13782V1.13977ZM15.5524 5.42688C15.1716 5.79797 15.1813 6.43274 15.5524 6.8136C15.9235 7.18469 16.568 7.18469 16.9391 6.80383L19.0387 4.70422C19.4098 4.33313 19.4098 3.69836 19.029 3.3175C18.6579 2.94641 18.0231 2.94641 17.652 3.32727L15.5524 5.42688ZM6.00163 6.80383C6.37273 7.17493 7.00749 7.18469 7.37859 6.8136C7.75945 6.43274 7.75945 5.79797 7.38835 5.42688L5.30827 3.32727C4.92741 2.95618 4.29265 2.94641 3.92155 3.3175C3.55046 3.6886 3.55046 4.32336 3.92155 4.69446L6.00163 6.80383ZM19.2536 20.4952C19.7321 20.9738 20.5426 20.9738 20.9919 20.4952C21.4606 20.007 21.4606 19.2355 20.9919 18.757L11.7145 9.43079C11.2458 8.95227 10.4352 8.95227 9.97624 9.43079C9.50749 9.92883 9.51726 10.7003 9.97624 11.1691L19.2536 20.4952ZM1.72429 9.89954C1.19695 9.89954 0.747726 10.3488 0.747726 10.8761C0.747726 11.4034 1.19695 11.8527 1.72429 11.8527H4.7321C5.26921 11.8527 5.71843 11.4034 5.71843 10.8761C5.71843 10.3488 5.26921 9.89954 4.7321 9.89954H1.72429ZM21.2165 11.8527C21.7536 11.8527 22.2028 11.4034 22.2028 10.8761C22.2028 10.3488 21.7536 9.89954 21.2165 9.89954H18.2184C17.6911 9.89954 17.2419 10.3488 17.2419 10.8761C17.2419 11.4034 17.6911 11.8527 18.2184 11.8527H21.2165ZM19.7028 19.7238L14.1462 14.1476L14.693 13.6007L20.2594 19.1769C20.4548 19.3722 20.5134 19.5968 20.3278 19.8019C20.1423 19.9777 19.9079 19.9288 19.7028 19.7238ZM3.91179 17.0382C3.53093 17.4093 3.53093 18.0441 3.89226 18.4152C4.27312 18.796 4.90788 18.8058 5.28874 18.4347L7.37859 16.3448C7.75945 15.964 7.75945 15.339 7.38835 14.9581C7.01726 14.587 6.38249 14.587 6.0114 14.9581L3.91179 17.0382ZM12.4567 17.6241C12.4567 17.0968 12.0075 16.6476 11.4704 16.6476C10.943 16.6476 10.4938 17.0968 10.4938 17.6241V20.6222C10.4938 21.1593 10.943 21.6085 11.4704 21.6085C12.0075 21.6085 12.4567 21.1593 12.4567 20.6222V17.6241Z" fill="#2B3442"/>
</svg>
