<svg width="22" height="21" viewBox="0 0 22 21" fill="none" xmlns="http://www.w3.org/2000/svg">
<path d="M11.1969 20.9604C16.861 20.9604 21.5094 16.3022 21.5094 10.6382C21.5094 4.98387 16.8512 0.325668 11.1969 0.325668C5.53288 0.325668 0.884445 4.98387 0.884445 10.6382C0.884445 16.3022 5.54265 20.9604 11.1969 20.9604ZM11.1969 14.0854C8.69695 14.0854 6.75359 14.9643 5.65007 16.0581C4.29265 14.6616 3.46257 12.7573 3.46257 10.6382C3.46257 6.35106 6.90007 2.89403 11.1969 2.89403C15.4841 2.89403 18.9411 6.35106 18.9411 10.6382C18.9509 12.7573 18.111 14.6616 16.7438 16.0581C15.6501 14.9643 13.7067 14.0854 11.1969 14.0854ZM11.1969 12.5718C13.111 12.5815 14.5856 10.9507 14.5856 8.86082C14.5856 6.89793 13.0915 5.22801 11.1969 5.22801C9.30241 5.22801 7.79851 6.89793 7.81804 8.86082C7.81804 10.9507 9.29265 12.562 11.1969 12.5718Z" fill="#2B3442"/>
</svg>
