<svg width="15" height="12" viewBox="0 0 15 12" fill="none" xmlns="http://www.w3.org/2000/svg">
<path d="M2.45839 11.9524H12.4135C13.7084 11.9524 14.3998 11.2669 14.3998 9.98368V2.8704C14.3998 1.58719 13.7084 0.901647 12.4135 0.901647H2.45839C1.16347 0.901647 0.472063 1.58133 0.472063 2.8704V9.98368C0.472063 11.2727 1.16347 11.9524 2.45839 11.9524ZM5.05995 6.42118C4.35097 6.42118 3.77675 5.82352 3.77675 5.02079C3.77675 4.27079 4.35097 3.64383 5.05995 3.64383C5.7748 3.64383 6.34316 4.27079 6.34316 5.02079C6.34316 5.82352 5.7748 6.42118 5.05995 6.42118ZM8.91542 4.5286C8.68105 4.5286 8.51698 4.35868 8.51698 4.13602C8.51698 3.91922 8.68105 3.7493 8.91542 3.7493H11.9037C12.1264 3.7493 12.2904 3.91922 12.2904 4.13602C12.2904 4.35868 12.1264 4.5286 11.9037 4.5286H8.91542ZM8.91542 6.82547C8.68105 6.82547 8.51698 6.64969 8.51698 6.42704C8.51698 6.21024 8.68105 6.04032 8.91542 6.04032H11.9037C12.1264 6.04032 12.2904 6.21024 12.2904 6.42704C12.2904 6.64969 12.1264 6.82547 11.9037 6.82547H8.91542ZM2.85683 9.13993C2.62831 9.13993 2.50527 8.97587 2.50527 8.75907C2.50527 8.21415 3.30214 6.8079 5.05995 6.8079C6.82363 6.8079 7.6205 8.21415 7.6205 8.75907C7.6205 8.97587 7.50331 9.13993 7.26894 9.13993H2.85683ZM8.91542 9.11063C8.68105 9.11063 8.51698 8.94657 8.51698 8.72391C8.51698 8.50126 8.68105 8.33133 8.91542 8.33133H11.9037C12.1264 8.33133 12.2904 8.50126 12.2904 8.72391C12.2904 8.94657 12.1264 9.11063 11.9037 9.11063H8.91542Z" fill="#ADADAD"/>
</svg>
