<svg width="304" height="130" viewBox="0 0 304 130" fill="none" xmlns="http://www.w3.org/2000/svg">
<path fill-rule="evenodd" clip-rule="evenodd" d="M95.8779 44.984C95.8779 47.1746 94.0909 48.9479 91.8882 48.9479C89.6849 48.9479 87.8986 47.1746 87.8986 44.984C87.8986 42.7947 89.6849 41.0193 91.8882 41.0193C94.0909 41.0193 95.8779 42.7947 95.8779 44.984ZM115.046 19.3865C115.046 22.6704 112.366 25.3331 109.062 25.3331C105.757 25.3331 103.079 22.6704 103.079 19.3865C103.079 16.1025 105.757 13.4398 109.062 13.4398C112.366 13.4398 115.046 16.1025 115.046 19.3865ZM132.22 27.9192C132.22 31.2031 129.541 33.8658 126.236 33.8658C122.931 33.8658 120.253 31.2031 120.253 27.9192C120.253 24.6353 122.931 21.9726 126.236 21.9726C129.541 21.9726 132.22 24.6353 132.22 27.9192ZM149.395 36.4512C149.395 39.7365 146.715 42.3972 143.41 42.3972C140.106 42.3972 137.426 39.7365 137.426 36.4512C137.426 33.1673 140.106 30.5067 143.41 30.5067C146.715 30.5067 149.395 33.1673 149.395 36.4512ZM132.22 44.9846C132.22 48.2679 129.541 50.9306 126.236 50.9306C122.931 50.9306 120.253 48.2679 120.253 44.9846C120.253 41.7007 122.931 39.038 126.236 39.038C129.541 39.038 132.22 41.7007 132.22 44.9846ZM166.567 44.9846C166.567 48.2679 163.888 50.9306 160.583 50.9306C157.279 50.9306 154.6 48.2679 154.6 44.9846C154.6 41.7007 157.279 39.038 160.583 39.038C163.888 39.038 166.567 41.7007 166.567 44.9846ZM164.573 62.0487C164.573 64.238 162.787 66.0134 160.584 66.0134C158.381 66.0134 156.592 64.238 156.592 62.0487C156.592 59.8601 158.381 58.0847 160.584 58.0847C162.787 58.0847 164.573 59.8601 164.573 62.0487ZM181.748 53.5167C181.748 55.706 179.961 57.4806 177.76 57.4806C175.555 57.4806 173.769 55.706 173.769 53.5167C173.769 51.3274 175.555 49.5527 177.76 49.5527C179.961 49.5527 181.748 51.3274 181.748 53.5167ZM183.743 36.4519C183.743 39.7352 181.063 42.3965 177.76 42.3965C174.455 42.3965 171.776 39.7352 171.776 36.4519C171.776 33.168 174.455 30.5073 177.76 30.5073C181.063 30.5073 183.743 33.168 183.743 36.4519ZM166.567 27.9192C166.567 31.2024 163.888 33.8651 160.583 33.8651C157.279 33.8651 154.6 31.2024 154.6 27.9192C154.6 24.6353 157.279 21.9726 160.583 21.9726C163.888 21.9726 166.567 24.6353 166.567 27.9192ZM147.4 53.5167C147.4 55.706 145.614 57.4806 143.411 57.4806C141.208 57.4806 139.421 55.706 139.421 53.5167C139.421 51.3274 141.208 49.5527 143.411 49.5527C145.614 49.5527 147.4 51.3274 147.4 53.5167ZM183.743 19.3858C183.743 22.6697 181.063 25.3324 177.758 25.3324C174.455 25.3324 171.776 22.6697 171.776 19.3858C171.776 16.1026 174.455 13.4398 177.758 13.4398C181.063 13.4398 183.743 16.1026 183.743 19.3858ZM198.922 10.8531C198.922 13.0423 197.136 14.8177 194.933 14.8177C192.73 14.8177 190.943 13.0423 190.943 10.8531C190.943 8.66447 192.73 6.8891 194.933 6.8891C197.136 6.8891 198.922 8.66447 198.922 10.8531ZM198.922 44.9846C198.922 47.1732 197.136 48.9486 194.933 48.9486C192.73 48.9486 190.943 47.1732 190.943 44.9846C190.943 42.7954 192.73 41.02 194.933 41.02C197.136 41.02 198.922 42.7954 198.922 44.9846ZM147.4 19.3865C147.4 21.5758 145.614 23.3504 143.411 23.3504C141.208 23.3504 139.421 21.5758 139.421 19.3865C139.421 17.1972 141.208 15.4225 143.411 15.4225C145.614 15.4225 147.4 17.1972 147.4 19.3865ZM130.226 62.0494C130.226 64.2387 128.441 66.0134 126.236 66.0134C124.033 66.0134 122.247 64.2387 122.247 62.0494C122.247 59.8601 124.033 58.0854 126.236 58.0854C128.441 58.0854 130.226 59.8601 130.226 62.0494ZM115.046 36.4512C115.046 39.7345 112.366 42.3972 109.062 42.3972C105.759 42.3972 103.079 39.7345 103.079 36.4512C103.079 33.1673 105.759 30.5067 109.062 30.5067C112.366 30.5067 115.046 33.1673 115.046 36.4512ZM77.0454 53.5167C77.0454 54.7974 76.0009 55.8339 74.7136 55.8339C73.427 55.8339 72.3818 54.7974 72.3818 53.5167C72.3818 52.238 73.427 51.1995 74.7136 51.1995C76.0009 51.1995 77.0454 52.238 77.0454 53.5167ZM77.0454 36.4519C77.0454 37.7306 76.0009 38.7684 74.7136 38.7684C73.427 38.7684 72.3818 37.7306 72.3818 36.4519C72.3818 35.1712 73.427 34.1347 74.7136 34.1347C76.0009 34.1347 77.0454 35.1712 77.0454 36.4519ZM111.394 53.3963C111.394 54.677 110.35 55.7135 109.062 55.7135C107.774 55.7135 106.73 54.677 106.73 53.3963C106.73 52.1176 107.774 51.079 109.062 51.079C110.35 51.079 111.394 52.1176 111.394 53.3963Z" fill="#2D2FB6"/>
<path fill-rule="evenodd" clip-rule="evenodd" d="M111.395 2.31722C111.395 3.59795 110.352 4.63443 109.063 4.63443C107.774 4.63443 106.731 3.59795 106.731 2.31722C106.731 1.03649 107.774 0 109.063 0C110.352 0 111.395 1.03649 111.395 2.31722Z" fill="#2D2FB6"/>
<path fill-rule="evenodd" clip-rule="evenodd" d="M145.625 70.5963C145.625 71.875 144.579 72.9135 143.293 72.9135C142.004 72.9135 140.959 71.875 140.959 70.5963C140.959 69.3176 142.004 68.2791 143.293 68.2791C144.579 68.2791 145.625 69.3176 145.625 70.5963ZM94.2231 10.8672C94.2231 12.1459 93.1799 13.1845 91.8913 13.1845C90.6026 13.1845 89.5588 12.1459 89.5588 10.8672C89.5588 9.58719 90.6026 8.55002 91.8913 8.55002C93.1799 8.55002 94.2231 9.58719 94.2231 10.8672ZM128.571 10.8672C128.571 12.1459 127.526 13.1845 126.239 13.1845C124.951 13.1845 123.907 12.1459 123.907 10.8672C123.907 9.58719 124.951 8.55002 126.239 8.55002C127.526 8.55002 128.571 9.58719 128.571 10.8672Z" fill="#2D2FB6"/>
<path fill-rule="evenodd" clip-rule="evenodd" d="M145.625 70.5783C145.625 71.857 144.581 72.8955 143.294 72.8955C142.005 72.8955 140.96 71.857 140.96 70.5783C140.96 69.2996 142.005 68.2611 143.294 68.2611C144.581 68.2611 145.625 69.2996 145.625 70.5783ZM231.618 27.9147C231.618 29.1934 230.575 30.2319 229.286 30.2319C227.997 30.2319 226.952 29.1934 226.952 27.9147C226.952 26.636 227.997 25.5975 229.286 25.5975C230.575 25.5975 231.618 26.636 231.618 27.9147ZM197.269 62.0449C197.269 63.3256 196.225 64.3621 194.937 64.3621C193.65 64.3621 192.605 63.3256 192.605 62.0449C192.605 60.7662 193.65 59.7277 194.937 59.7277C196.225 59.7277 197.269 60.7662 197.269 62.0449ZM218.095 19.3827C218.095 22.6659 215.416 25.3272 212.111 25.3272C208.806 25.3272 206.127 22.6659 206.127 19.3827C206.127 16.0987 208.806 13.4381 212.111 13.4381C215.416 13.4381 218.095 16.0987 218.095 19.3827ZM200.921 27.9154C200.921 31.1986 198.241 33.86 194.937 33.86C191.632 33.86 188.954 31.1986 188.954 27.9154C188.954 24.6315 191.632 21.9688 194.937 21.9688C198.241 21.9688 200.921 24.6315 200.921 27.9154ZM214.443 53.5129C214.443 54.7929 213.4 55.8301 212.111 55.8301C210.823 55.8301 209.78 54.7929 209.78 53.5129C209.78 52.2342 210.823 51.1957 212.111 51.1957C213.4 51.1957 214.443 52.2342 214.443 53.5129ZM216.1 36.4474C216.1 38.6367 214.315 40.4121 212.111 40.4121C209.909 40.4121 208.121 38.6367 208.121 36.4474C208.121 34.2588 209.909 32.4835 212.111 32.4835C214.315 32.4835 216.1 34.2588 216.1 36.4474ZM162.92 10.8493C162.92 12.1279 161.877 13.1665 160.588 13.1665C159.299 13.1665 158.256 12.1279 158.256 10.8493C158.256 9.56921 159.299 8.53204 160.588 8.53204C161.877 8.53204 162.92 9.56921 162.92 10.8493ZM214.443 2.31722C214.443 3.59589 213.4 4.63443 212.111 4.63443C210.823 4.63443 209.78 3.59589 209.78 2.31722C209.78 1.03717 210.823 0 212.111 0C213.4 0 214.443 1.03717 214.443 2.31722ZM231.618 10.8493C231.618 12.1279 230.575 13.1665 229.286 13.1665C227.997 13.1665 226.952 12.1279 226.952 10.8493C226.952 9.56921 227.997 8.53204 229.286 8.53204C230.575 8.53204 231.618 9.56921 231.618 10.8493Z" fill="#2D2FB6"/>
<path fill-rule="evenodd" clip-rule="evenodd" d="M97.8751 27.9156C97.8751 31.1995 95.195 33.8622 91.8907 33.8622C88.5863 33.8622 85.9082 31.1995 85.9082 27.9156C85.9082 24.6323 88.5863 21.9696 91.8907 21.9696C95.195 21.9696 97.8751 24.6323 97.8751 27.9156Z" fill="#EE215B"/>
<path fill-rule="evenodd" clip-rule="evenodd" d="M16.1182 112.268C16.4302 111.525 16.4867 110.916 16.293 110.461C16.1424 110.114 15.8464 109.852 15.4099 109.684C14.3439 109.297 13.4965 109.802 12.9315 111.167L8.95062 120.758L3.46248 110.963C3.13763 110.356 2.74754 109.945 2.30096 109.744C1.84765 109.537 1.34591 109.569 0.81324 109.844C0.316886 110.119 0.0465146 110.543 0.00616067 111.105C-0.0328482 111.65 0.113771 112.196 0.435258 112.724L7.18042 124.371C6.8818 125.138 6.56435 125.717 6.23211 126.09C5.90389 126.462 5.52457 126.643 5.0726 126.643C4.86814 126.643 4.67511 126.624 4.4989 126.587C4.32202 126.55 4.11419 126.485 3.87947 126.39C3.6286 126.292 3.45575 126.232 3.36361 126.215C2.34871 125.885 1.65664 126.169 1.32506 127.038C0.952461 128.021 1.3143 128.82 2.39646 129.408C3.10938 129.8 4.06846 130 5.24545 130C6.55561 130 7.64786 129.505 8.49193 128.528C9.32187 127.569 10.2023 126.008 11.1149 123.889L16.1182 112.268ZM21.5928 129.711C22.1686 129.711 22.6279 129.534 22.9595 129.183C23.2897 128.834 23.4572 128.38 23.4572 127.829V121.069H32.4689V127.829C32.4689 128.379 32.6317 128.834 32.9511 129.182C33.274 129.533 33.738 129.711 34.3333 129.711C34.907 129.711 35.3677 129.534 35.6992 129.182C36.0295 128.834 36.1976 128.379 36.1976 127.829V111.442C36.1976 110.894 36.0295 110.434 35.7013 110.076C35.3697 109.715 34.909 109.532 34.3333 109.532C33.738 109.532 33.272 109.716 32.9511 110.078C32.6317 110.436 32.4689 110.894 32.4689 111.442V117.741H23.4572V111.442C23.4572 110.894 23.2897 110.434 22.9595 110.076C22.6279 109.715 22.1686 109.532 21.5928 109.532C20.9983 109.532 20.5322 109.716 20.2094 110.078C19.8913 110.436 19.7292 110.895 19.7292 111.442V127.829C19.7292 128.379 19.8913 128.833 20.2107 129.182C20.5342 129.533 20.9983 129.711 21.5928 129.711ZM43.2629 129.711C43.8608 129.711 44.4399 129.356 44.9874 128.652L54.2251 116.11V127.829C54.2251 128.359 54.3872 128.808 54.7073 129.166C55.0301 129.527 55.505 129.711 56.119 129.711C56.7142 129.711 57.175 129.533 57.489 129.18C57.7977 128.833 57.9531 128.379 57.9531 127.829V111.442C57.9531 110.175 57.3565 109.532 56.1775 109.532C55.5016 109.532 54.901 109.88 54.3946 110.564L45.2134 123.188V111.442C45.2134 110.895 45.0526 110.436 44.7332 110.078C44.4103 109.716 43.9442 109.532 43.349 109.532C42.735 109.532 42.2655 109.716 41.9507 110.08C41.642 110.437 41.4867 110.895 41.4867 111.442V127.829C41.4867 128.417 41.6441 128.881 41.9548 129.211C42.2669 129.543 42.7081 129.711 43.2629 129.711ZM73.258 126.056C72.5552 126.522 71.4851 126.759 70.0802 126.759C68.8198 126.759 67.7268 126.704 66.8249 126.598V120.809H70.0519C72.9063 120.809 74.2958 121.774 74.2958 123.754C74.2958 124.826 73.9461 125.6 73.258 126.056ZM69.6739 117.973H66.8249V112.647C67.708 112.56 68.5689 112.514 69.3827 112.514C72.0434 112.514 73.3354 113.356 73.3354 115.083C73.3354 117.027 72.1369 117.973 69.6739 117.973ZM74.698 118.908C75.4096 118.532 75.9886 117.987 76.4211 117.285C76.9047 116.498 77.1522 115.642 77.1522 114.738C77.1522 111.188 74.6455 109.388 69.7022 109.388C67.9602 109.388 66.3783 109.506 64.9996 109.738C63.8327 109.939 63.2435 110.63 63.2435 111.789V127.571C63.2435 128.711 63.826 129.374 64.9713 129.535C66.3467 129.748 68.0167 129.856 69.9356 129.856C75.3605 129.856 78.1106 127.755 78.1106 123.61C78.1106 122.452 77.7804 121.441 77.1253 120.604C76.5287 119.839 75.7115 119.269 74.698 118.908ZM95.8314 129.26C96.1542 128.959 96.319 128.555 96.319 128.062C96.319 127.548 96.1542 127.136 95.8314 126.832C95.5085 126.534 95.0761 126.384 94.5427 126.384H86.2547V121.01H92.6239C93.1767 121.01 93.6193 120.854 93.9428 120.544C94.2656 120.234 94.4297 119.827 94.4297 119.333C94.4297 118.818 94.2636 118.409 93.9388 118.118C93.6179 117.829 93.1747 117.683 92.6239 117.683H86.2547V112.861H94.2515C94.7848 112.861 95.2186 112.709 95.5401 112.41C95.865 112.109 96.0271 111.705 96.0271 111.21C96.0271 110.697 95.865 110.284 95.5401 109.982C95.2186 109.684 94.7848 109.532 94.2515 109.532H84.4206C83.8261 109.532 83.3559 109.716 83.0244 110.075C82.6941 110.435 82.5267 110.895 82.5267 111.442V127.8C82.5267 128.35 82.6995 128.811 83.0405 129.169C83.3808 129.529 83.8556 129.711 84.4489 129.711H94.5427C95.0761 129.711 95.5085 129.56 95.8314 129.26ZM103.737 112.818C104.545 112.712 105.355 112.658 106.148 112.658C108.827 112.658 110.13 113.745 110.13 115.98C110.13 118.371 108.76 119.532 105.943 119.532C105.023 119.532 104.282 119.499 103.737 119.433V112.818ZM114.033 115.893C114.033 113.669 113.327 112.008 111.936 110.958C110.554 109.916 108.635 109.389 106.236 109.389C104.527 109.389 103.012 109.514 101.732 109.766C100.587 109.99 100.008 110.709 100.008 111.904V127.831C100.008 128.378 100.169 128.832 100.49 129.182C100.813 129.534 101.277 129.711 101.872 129.711C102.446 129.711 102.907 129.534 103.238 129.183C103.569 128.834 103.737 128.38 103.737 127.831V122.649C104.315 122.734 105.126 122.775 106.148 122.775C108.473 122.775 110.386 122.192 111.836 121.044C113.294 119.888 114.033 118.155 114.033 115.893ZM130.434 125.445C129.043 126.258 127.675 126.671 126.363 126.671C124.721 126.671 123.346 126.039 122.28 124.79C121.208 123.538 120.665 121.79 120.665 119.593C120.665 117.473 121.171 115.75 122.167 114.477C123.785 112.41 126.453 112.005 130.045 113.373C131.255 113.822 132.05 113.636 132.406 112.85C132.82 111.966 132.572 111.207 131.668 110.595C130.374 109.699 128.541 109.244 126.218 109.244C123.268 109.244 120.93 110.195 119.265 112.072C117.604 113.945 116.763 116.485 116.763 119.621C116.763 122.796 117.556 125.345 119.116 127.197C120.686 129.058 123.035 130 126.102 130C128.522 130 130.541 129.42 132.107 128.27C132.614 127.89 132.926 127.448 133.039 126.96C133.154 126.464 133.073 126.033 132.802 125.682C132.285 124.941 131.482 124.852 130.434 125.445ZM151.786 109.532C151.11 109.532 150.51 109.879 150.003 110.563L140.823 123.188V111.442C140.823 110.895 140.661 110.435 140.342 110.078C140.018 109.716 139.552 109.532 138.958 109.532C138.344 109.532 137.873 109.716 137.559 110.08C137.251 110.437 137.093 110.895 137.093 111.442V127.831C137.093 128.417 137.252 128.881 137.563 129.211C137.875 129.543 138.317 129.711 138.871 129.711C139.469 129.711 140.051 129.355 140.596 128.652L149.835 116.11V127.831C149.835 128.359 149.996 128.81 150.315 129.165C150.639 129.527 151.114 129.711 151.728 129.711C152.322 129.711 152.784 129.532 153.098 129.18C153.406 128.832 153.562 128.378 153.562 127.831V111.442C153.562 110.174 152.963 109.532 151.786 109.532ZM174.185 111.182C174.185 110.668 174.02 110.26 173.695 109.967C173.374 109.679 172.93 109.532 172.379 109.532H158.593C158.06 109.532 157.627 109.679 157.304 109.967C156.979 110.26 156.815 110.668 156.815 111.182C156.815 111.675 156.978 112.083 157.303 112.394C157.623 112.705 158.058 112.861 158.593 112.861H163.622V127.83C163.622 128.377 163.783 128.834 164.104 129.181C164.425 129.533 164.891 129.711 165.486 129.711C166.08 129.711 166.546 129.533 166.866 129.181C167.188 128.834 167.349 128.379 167.349 127.83V112.861H172.379C172.932 112.861 173.377 112.705 173.698 112.394C174.021 112.083 174.185 111.675 174.185 111.182ZM189.453 126.383H181.165V121.012H187.532C188.087 121.012 188.53 120.854 188.851 120.545C189.174 120.234 189.338 119.826 189.338 119.333C189.338 118.819 189.174 118.408 188.849 118.118C188.526 117.83 188.085 117.683 187.532 117.683H181.165V112.861H189.162C189.695 112.861 190.129 112.709 190.451 112.41C190.776 112.109 190.938 111.706 190.938 111.212C190.938 110.697 190.776 110.283 190.451 109.984C190.129 109.683 189.695 109.533 189.162 109.533H179.331C178.737 109.533 178.266 109.716 177.935 110.077C177.605 110.435 177.437 110.894 177.437 111.443V127.802C177.437 128.351 177.61 128.81 177.949 129.168C178.291 129.528 178.766 129.712 179.359 129.712H189.453C189.987 129.712 190.419 129.559 190.74 129.259C191.065 128.959 191.229 128.556 191.229 128.061C191.229 127.549 191.065 127.135 190.74 126.834C190.419 126.533 189.987 126.383 189.453 126.383ZM209.962 111.182C209.962 110.668 209.798 110.26 209.473 109.967C209.15 109.679 208.708 109.532 208.156 109.532H194.369C193.838 109.532 193.405 109.679 193.082 109.967C192.758 110.26 192.591 110.668 192.591 111.182C192.591 111.675 192.756 112.083 193.078 112.394C193.402 112.705 193.836 112.861 194.369 112.861H199.398V127.83C199.398 128.377 199.561 128.834 199.88 129.181C200.204 129.533 200.668 129.711 201.262 129.711C201.857 129.711 202.321 129.533 202.645 129.181C202.964 128.834 203.127 128.379 203.127 127.83V112.861H208.156C208.71 112.861 209.153 112.705 209.475 112.394C209.798 112.083 209.962 111.675 209.962 111.182ZM237.827 127.83V111.442C237.827 110.175 237.228 109.532 236.051 109.532C235.373 109.532 234.775 109.879 234.266 110.563L225.087 123.187V111.442C225.087 110.894 224.924 110.435 224.607 110.077C224.284 109.716 223.818 109.532 223.223 109.532C222.607 109.532 222.137 109.716 221.825 110.079C221.516 110.438 221.358 110.896 221.358 111.442V127.83C221.358 128.416 221.516 128.881 221.829 129.21C222.139 129.544 222.58 129.712 223.137 129.712C223.735 129.712 224.314 129.356 224.861 128.651L234.099 116.111V127.83C234.099 128.36 234.26 128.809 234.579 129.165C234.902 129.528 235.377 129.712 235.991 129.712C236.588 129.712 237.049 129.533 237.361 129.181C237.67 128.831 237.827 128.377 237.827 127.83ZM256.644 109.532H242.856C242.326 109.532 241.892 109.677 241.569 109.967C241.244 110.26 241.08 110.667 241.08 111.182C241.08 111.676 241.244 112.083 241.567 112.395C241.889 112.703 242.322 112.861 242.856 112.861H247.886V127.831C247.886 128.378 248.047 128.832 248.369 129.181C248.69 129.534 249.156 129.711 249.751 129.711C250.346 129.711 250.81 129.534 251.132 129.181C251.452 128.832 251.615 128.378 251.615 127.831V112.861H256.644C257.197 112.861 257.64 112.703 257.963 112.395C258.286 112.083 258.45 111.676 258.45 111.182C258.45 110.667 258.286 110.26 257.959 109.967C257.637 109.677 257.195 109.532 256.644 109.532ZM278.488 109.532C277.769 109.532 277.159 109.919 276.672 110.686L270.953 119.862L265.123 110.716C264.635 109.93 263.995 109.532 263.218 109.532C262.702 109.532 262.277 109.695 261.956 110.015C261.633 110.335 261.469 110.827 261.469 111.472V127.831C261.469 129.078 262.058 129.711 263.218 129.711C264.376 129.711 264.966 129.078 264.966 127.831V116.615L269.051 122.979C269.499 123.687 270.08 124.045 270.781 124.045C271.462 124.045 272.034 123.677 272.481 122.951L276.507 116.482V127.831C276.507 128.378 276.675 128.834 277.005 129.183C277.337 129.534 277.797 129.711 278.371 129.711C278.966 129.711 279.432 129.534 279.753 129.181C280.073 128.834 280.236 128.378 280.236 127.831V111.442C280.236 110.876 280.084 110.413 279.786 110.065C279.482 109.711 279.046 109.532 278.488 109.532ZM298.595 124.71C297.605 126.011 296.164 126.671 294.312 126.671C292.478 126.671 291.048 126.011 290.058 124.71C289.06 123.398 288.556 121.686 288.556 119.621C288.556 117.559 289.06 115.846 290.058 114.533C291.048 113.233 292.478 112.572 294.312 112.572C296.164 112.572 297.605 113.233 298.595 114.533C299.591 115.846 300.097 117.559 300.097 119.621C300.097 121.686 299.591 123.398 298.595 124.71ZM301.468 112.175C299.786 110.23 297.379 109.244 294.312 109.244C291.244 109.244 288.842 110.23 287.166 112.175C285.498 114.113 284.652 116.62 284.652 119.621C284.652 122.643 285.498 125.153 287.168 127.083C288.842 129.02 291.244 130 294.312 130C297.377 130 299.786 129.02 301.468 127.083C303.149 125.153 304 122.643 304 119.621C304 116.62 303.149 114.113 301.468 112.175Z" fill="#2D2FB6"/>
</svg>
