<svg width="19" height="24" viewBox="0 0 19 24" fill="none" xmlns="http://www.w3.org/2000/svg">
<path d="M9.63249 15.2303C10.1305 15.2303 10.5407 14.8201 10.5407 14.3416V4.50763L10.4626 3.05255L11.068 3.76544L12.445 5.23029C12.6012 5.40607 12.8259 5.49396 13.0505 5.49396C13.4899 5.49396 13.8512 5.17169 13.8512 4.71271C13.8512 4.47833 13.7634 4.30255 13.5973 4.13654L10.3161 0.982239C10.0915 0.747864 9.87663 0.669739 9.63249 0.669739C9.39812 0.669739 9.18327 0.747864 8.95866 0.982239L5.67741 4.13654C5.5114 4.30255 5.41374 4.47833 5.41374 4.71271C5.41374 5.17169 5.77507 5.49396 6.21452 5.49396C6.43913 5.49396 6.67351 5.40607 6.82976 5.23029L8.19695 3.76544L8.81218 3.05255L8.73405 4.50763V14.3416C8.73405 14.8201 9.14421 15.2303 9.63249 15.2303ZM4.01726 23.0135H15.2575C17.3669 23.0135 18.4606 21.9295 18.4606 19.8494V10.2303C18.4606 8.15021 17.3669 7.06622 15.2575 7.06622H12.611V8.98029H15.1403C16.0387 8.98029 16.5466 9.44904 16.5466 10.3963V19.6834C16.5466 20.6307 16.0387 21.0994 15.1403 21.0994H4.13445C3.22624 21.0994 2.7282 20.6307 2.7282 19.6834V10.3963C2.7282 9.44904 3.22624 8.98029 4.13445 8.98029H6.68327V7.06622H4.01726C1.90788 7.06622 0.814133 8.15021 0.814133 10.2303V19.8494C0.814133 21.9295 1.90788 23.0135 4.01726 23.0135Z" fill="white"/>
</svg>
