<svg width="19" height="22" viewBox="0 0 19 22" fill="none" xmlns="http://www.w3.org/2000/svg">
<path d="M9.63249 15.0224C9.87663 15.0224 10.0915 14.9442 10.3161 14.7196L13.5973 11.5556C13.7634 11.3896 13.8512 11.2138 13.8512 10.9794C13.8512 10.5302 13.4899 10.1982 13.0505 10.1982C12.8259 10.1982 12.6012 10.2958 12.445 10.4716L11.068 11.9267L10.443 12.6396L10.5407 11.1942V1.06729C10.5407 0.588776 10.1305 0.178619 9.63249 0.178619C9.14421 0.178619 8.73405 0.588776 8.73405 1.06729V11.1942L8.83171 12.6493L8.19695 11.9267L6.82976 10.4716C6.67351 10.2958 6.43913 10.1982 6.21452 10.1982C5.77507 10.1982 5.41374 10.5302 5.41374 10.9794C5.41374 11.2138 5.5114 11.3896 5.67741 11.5556L8.95866 14.7196C9.18327 14.9442 9.39812 15.0224 9.63249 15.0224ZM4.01726 21.3505H15.2575C17.3669 21.3505 18.4606 20.2665 18.4606 18.1864V8.56729C18.4606 6.48721 17.3669 5.40323 15.2575 5.40323H12.611V7.31729H15.1403C16.0387 7.31729 16.5466 7.78604 16.5466 8.73331V18.0204C16.5466 18.9677 16.0387 19.4364 15.1403 19.4364H4.13445C3.22624 19.4364 2.7282 18.9677 2.7282 18.0204V8.73331C2.7282 7.78604 3.22624 7.31729 4.13445 7.31729H6.68327V5.40323H4.01726C1.90788 5.40323 0.814133 6.48721 0.814133 8.56729V18.1864C0.814133 20.2665 1.90788 21.3505 4.01726 21.3505Z" fill="white"/>
</svg>
