<svg width="25" height="26" viewBox="0 0 25 26" fill="none" xmlns="http://www.w3.org/2000/svg">
<path d="M12.2132 25.0705C18.8343 25.0705 24.3186 19.5978 24.3186 12.965C24.3186 6.34392 18.8343 0.859543 12.2014 0.859543C5.58035 0.859543 0.107693 6.34392 0.107693 12.965C0.107693 19.5978 5.59207 25.0705 12.2132 25.0705ZM12.2132 22.6916C6.82254 22.6916 2.49832 18.3556 2.49832 12.965C2.49832 7.57439 6.81082 3.25017 12.2014 3.25017C17.5921 3.25017 21.928 7.57439 21.9397 12.965C21.9397 18.3556 17.6038 22.6916 12.2132 22.6916ZM16.7952 9.81267L17.6389 8.96892C18.0374 8.55876 18.0608 8.07829 17.6858 7.70329L17.4046 7.42204C17.0296 7.04704 16.5491 7.0822 16.1507 7.48064L15.3069 8.32439L16.7952 9.81267ZM8.59207 17.9924L16.0921 10.5158L14.5921 9.01579L7.10379 16.5041L6.45926 18.0627C6.31863 18.4142 6.65847 18.7189 6.97488 18.6134L8.59207 17.9924Z" fill="#2543AD"/>
</svg>
