<svg width="20" height="20" viewBox="0 0 20 20" fill="none" xmlns="http://www.w3.org/2000/svg">
<path d="M0.246094 8.2793C0.246094 12.8203 3.92773 16.502 8.46875 16.502C9.98242 16.502 11.3789 16.082 12.5703 15.3594L16.4961 19.2852C16.877 19.666 17.3848 19.8516 17.9121 19.8516C19.0449 19.8516 19.8848 18.9922 19.8848 17.8789C19.8848 17.3516 19.6992 16.8633 19.3184 16.4727L15.4316 12.5762C16.2324 11.3457 16.7012 9.87109 16.7012 8.2793C16.7012 3.72852 13.0195 0.046875 8.46875 0.046875C3.92773 0.046875 0.246094 3.72852 0.246094 8.2793ZM3.0293 8.2793C3.0293 5.27148 5.4707 2.83984 8.46875 2.83984C11.4766 2.83984 13.918 5.27148 13.918 8.2793C13.918 11.2871 11.4766 13.7188 8.46875 13.7188C5.4707 13.7188 3.0293 11.2871 3.0293 8.2793Z" fill="#ADADAD"/>
</svg>
